<?xml version="1.0" encoding="UTF-8"?><svg id="Layer_1" xmlns="http://www.w3.org/2000/svg" viewBox="0 0 101.8 115.77"><defs><style>.cls-1{fill:#fff;}.cls-2{fill:#5e8e3e;}.cls-3{fill:#95bf46;}</style></defs><path class="cls-3" d="M89.16,22.54c-.08-.58-.59-.9-1.01-.94-.42-.04-9.32-.69-9.32-.69,0,0-6.18-6.14-6.86-6.81-.68-.68-2-.47-2.52-.32-.08,.02-1.35,.42-3.46,1.07-2.06-5.94-5.71-11.4-12.12-11.4-.18,0-.36,0-.54,.02-1.82-2.41-4.08-3.46-6.03-3.46-14.93,0-22.06,18.66-24.3,28.15-5.8,1.8-9.92,3.08-10.45,3.24-3.24,1.02-3.34,1.12-3.77,4.17-.32,2.31-8.79,67.84-8.79,67.84l66.03,12.37,35.77-7.74s-12.56-84.91-12.64-85.49h0Zm-26.81-6.57l-5.59,1.73c0-.39,0-.78,0-1.2,0-3.69-.51-6.66-1.33-9.02,3.3,.41,5.5,4.17,6.92,8.5Zm-11.01-7.76c.92,2.3,1.52,5.6,1.52,10.06,0,.23,0,.44,0,.65-3.63,1.13-7.58,2.35-11.54,3.57,2.22-8.57,6.39-12.72,10.03-14.28h0Zm-4.44-4.2c.64,0,1.29,.22,1.91,.65-4.78,2.25-9.91,7.92-12.08,19.25l-9.12,2.82c2.54-8.64,8.56-22.72,19.28-22.72h0Z"/><path class="cls-2" d="M88.15,21.6c-.42-.04-9.32-.69-9.32-.69,0,0-6.18-6.14-6.86-6.81-.25-.25-.6-.38-.95-.44l-4.99,102.11,35.77-7.74s-12.56-84.91-12.64-85.49c-.08-.58-.59-.9-1.01-.94"/><path class="cls-1" d="M53.88,41.37l-4.41,13.12s-3.86-2.06-8.6-2.06c-6.95,0-7.29,4.36-7.29,5.46,0,5.99,15.62,8.29,15.62,22.33,0,11.04-7,18.16-16.45,18.16-11.33,0-17.13-7.05-17.13-7.05l3.03-10.03s5.96,5.11,10.99,5.11c3.28,0,4.62-2.59,4.62-4.48,0-7.82-12.82-8.17-12.82-21.01,0-10.81,7.76-21.27,23.42-21.27,6.04,0,9.02,1.73,9.02,1.73"/></svg>