<svg xmlns="http://www.w3.org/2000/svg" viewBox="0 0 114.15 114.16" xmlns:v="https://vecta.io/nano"><path d="M0 56.99C0 25.23 26.17-.7 58.38.01c31.14.69 56.44 26.51 55.75 58.36-.67 31.13-26.49 56.5-58.43 55.77C24.85 113.44-.08 88.13 0 56.99z" fill="#010198"/><path d="M49.65 61.89c-.05.5-.45.29-.69.29-1.99-.05-3.84-.58-5.58-1.57-4.55-2.6-9.09-2.57-13.67 0-3.86 2.16-7.84 2.25-11.69.1-4.74-2.65-9.37-2.7-14.06.04-2.47 1.45-2.53 1.42-2.62-1.35-.49-15.58 4.51-29.16 15.15-40.54C25.36 9.38 36.33 3.77 49.17 1.85c28.47-4.24 55.98 14.65 62.29 42.76.99 4.41 1.46 8.87 1.4 13.39 0 .63-.22.8-.8.82-1.84.09-3.53.67-5.12 1.59-4.2 2.42-8.39 2.4-12.66.08-4.29-2.33-8.69-2.36-12.99-.03-4.26 2.31-8.41 2.32-12.67 0s-8.6-2.27-12.92-.03c-.29.15-.59.28-.86.46-.49.35-.85.22-1.15-.24-.74-.72-1.34-1.57-1.94-2.41-.34-.48-.3-.81.12-1.22 1.5-1.48 2.47-3.24 2.7-5.36.38-3.42-.85-6.19-3.53-8.25-3.55-2.72-8.48-2.41-11.76.61-2.79 2.56-3.62 7.32-1.89 10.66.22.42.51.74.98.83 1.67.29 3.1 1.15 4.58 1.9 1.39.7 2.83 1.21 4.41 1.22.3 0 .65.02.81.28.58.95 1.29 1.83 1.48 2.97zM3.09 71.27l-.75-3.33c-.05-.24-.17-.54.17-.69 1.94-.86 3.69-2.14 5.87-2.42 2.88-.37 5.57.04 8.13 1.49 4.42 2.52 8.9 2.51 13.35.04 4.09-2.27 8.16-2.28 12.25-.01 4.42 2.45 8.86 2.48 13.28.05 4.06-2.23 8.12-2.32 12.19-.11 4.55 2.47 9.08 2.48 13.63 0 3.97-2.16 7.98-2.17 11.96-.01 4.62 2.51 9.2 2.52 13.77-.08a11.49 11.49 0 0 1 4.71-1.47c.47-.04.71 0 .58.59a41.96 41.96 0 0 0-.59 3.32c-.07.5-.32.63-.75.67-1.77.19-3.35.87-4.9 1.72-3.94 2.15-7.94 2.18-11.87.05-4.62-2.51-9.16-2.53-13.79-.01-3.93 2.14-7.94 2.13-11.88-.01-4.62-2.51-9.17-2.49-13.78.05-3.93 2.16-7.93 2.12-11.86-.06-4.54-2.52-9.05-2.54-13.6 0-3.93 2.19-7.93 2.25-11.86.07-4.61-2.56-9.16-2.64-13.76-.07a5.67 5.67 0 0 1-.53.24zm7.29-.88c2.27-.06 4.29.58 6.22 1.66 4.44 2.48 8.91 2.42 13.35-.04 4.03-2.23 8.07-2.26 12.09-.02 4.45 2.47 8.9 2.54 13.36.1 4.12-2.26 8.22-2.28 12.36-.04 4.43 2.4 8.87 2.41 13.3 0 4.1-2.23 8.18-2.24 12.28-.02 4.52 2.45 9.05 2.42 13.54-.1 1.17-.66 2.39-1.15 3.72-1.38.39-.07.66-.1.5.43l-1.13 3.83c-.09.3-.3.39-.58.46-1.27.33-2.42.93-3.57 1.54-3.87 2.03-7.81 2.06-11.64-.03-4.68-2.55-9.26-2.53-13.95.01-3.97 2.16-7.99 2.01-11.95-.16-4-2.2-8.1-2.38-12.28-.54-.4.18-.79.4-1.18.61-4.01 2.19-8.02 2.2-12.01-.02-4.54-2.52-9.06-2.52-13.6.02-3.93 2.19-7.94 2.25-11.85.05-3.97-2.23-7.99-2.54-12.18-.85-.43.17-.61.15-.74-.32-.24-.85-.54-1.69-.83-2.53-.14-.41-.03-.62.35-.84 2-1.21 4.12-1.92 6.43-1.83zm99 6.18l-1.62 3.84c-.39 1.08-1.12 1.72-2.12 2.21-4.01 1.94-7.94 1.83-11.81-.34-2.03-1.14-4.21-1.72-6.53-1.74-2.33-.02-4.52.53-6.55 1.67-4.23 2.37-8.41 2.32-12.67 0-4.33-2.35-8.74-2.29-13.07.08-4.2 2.31-8.3 2.25-12.49-.07-4.32-2.39-8.73-2.37-13.05.03-4.15 2.31-8.28 2.39-12.4.02-3.03-1.74-6.23-2.13-9.6-1.44-.59.12-.91.09-1.13-.54-.28-.81-.63-1.6-1.01-2.36-.26-.53-.14-.77.4-.98 3.7-1.42 7.3-1.29 10.76.72 3.61 2.1 7.38 2.34 11.29 1.06.82-.27 1.56-.71 2.31-1.12 3.95-2.15 7.93-2.19 11.86 0 4.58 2.54 9.1 2.57 13.69.04 3.9-2.15 7.89-2.22 11.79-.1 4.72 2.56 9.32 2.55 14.03-.01 3.97-2.16 8.01-2 11.95.2 3.12 1.73 6.41 2.17 9.87 1.36 1.24-.29 2.42-.78 3.52-1.44.76-.45 1.54-.85 2.59-1.1zM106 83.81c-1.01 1.95-2.11 3.61-3.21 5.25-.3.45-.74.46-1.16.51-2.6.31-5.09-.08-7.38-1.37-4.64-2.61-9.25-2.61-13.94-.06-3.93 2.14-7.94 2.09-11.88-.05-4.59-2.49-9.12-2.47-13.7.05-3.96 2.18-7.98 2.14-11.94-.07-4.51-2.51-9.01-2.51-13.52-.01-4.02 2.23-8.08 2.25-12.09-.01-2.14-1.21-4.39-1.91-6.85-1.79-.62.03-.97-.17-1.25-.71-.48-.95-1-1.88-1.55-2.79-.32-.53-.17-.69.37-.78 3.08-.52 5.96-.1 8.73 1.47 4.39 2.49 8.86 2.42 13.27-.04 1.31-.73 2.66-1.31 4.14-1.51 2.84-.39 5.51.03 8.04 1.48 4.41 2.52 8.89 2.52 13.36.07 4.06-2.23 8.13-2.28 12.2-.07 4.52 2.46 9.03 2.46 13.55 0 4.04-2.19 8.09-2.19 12.11.03 3.57 1.97 7.27 2.33 11.14 1.05.46-.15.9-.37 1.56-.64zm-4.61 7.1c-1.06 1.46-2.2 2.76-3.38 4.03-.26.28-.54.15-.82.08a13.26 13.26 0 0 1-3.21-1.27c-4.51-2.48-9.03-2.46-13.55 0-3.97 2.16-7.99 2.2-11.96.05-4.69-2.55-9.28-2.47-13.95.1-3.81 2.1-7.74 2.07-11.53-.04-4.71-2.62-9.29-2.62-13.99.01-3.76 2.1-7.64 2.05-11.46.07-1.1-.57-2.17-1.21-3.38-1.53-.2-.05-.38-.15-.52-.32-1.16-1.45-2.27-2.94-3.34-4.62 2.17-.11 4.08.39 5.85 1.41 4.72 2.73 9.38 2.67 14.15.02 3.82-2.13 7.79-2.05 11.62.08 4.57 2.55 9.1 2.59 13.68.07 3.93-2.16 7.94-2.22 11.88-.08 4.69 2.54 9.27 2.53 13.95-.03 3.77-2.06 7.68-2.09 11.47-.05 2.58 1.38 5.23 2.17 8.16 1.96.08 0 .16.03.33.06zM54.41 62.43c.56-.11 1.03-.44 1.51-.71 4.04-2.26 8.13-2.33 12.19-.13 4.6 2.5 9.12 2.47 13.71-.03 3.9-2.13 7.9-2.14 11.8-.02 4.72 2.57 9.36 2.56 14.01-.12 1.38-.79 2.87-1.23 4.46-1.39.49-.05.72.01.65.58-.1.79-.16 1.59-.2 2.39-.02.39-.18.49-.54.5-2.17.09-4.14.81-6.05 1.85-3.9 2.13-7.89 2.15-11.79.03-4.65-2.53-9.22-2.53-13.87 0-3.9 2.12-7.89 2.09-11.8-.03-4.65-2.53-9.22-2.49-13.87.07-3.8 2.09-7.74 2.14-11.54.03-4.77-2.65-9.39-2.64-14.16.01-3.79 2.11-7.74 2.06-11.53-.06-4.67-2.61-9.27-2.66-13.91 0-.28.16-.58.3-.87.44-.16.08-.32.13-.6.24l-.39-2.72c-.05-.32.13-.39.39-.47 1.23-.36 2.31-1.04 3.45-1.6 3.76-1.85 7.56-1.88 11.23.18 4.73 2.65 9.34 2.63 14.08 0 3.89-2.17 7.9-2.07 11.77.14 2.42 1.39 4.99 1.96 7.74 1.82.2-.01.4-.08.6-.12 1.17-.3 2.29-.81 3.52-.9zM16 94.53c1.07.52 1.96 1.09 2.98 1.39 3.75 1.12 7.36.9 10.81-1.06 4.16-2.38 8.29-2.34 12.48-.01 4.32 2.39 8.72 2.41 13.05.03 4.12-2.27 8.22-2.37 12.35-.13 4.53 2.46 9.03 2.44 13.55-.02 3.88-2.11 7.8-2.17 11.72-.15 1.21.62 2.43 1.22 3.83 1.62-.93 1.05-1.94 1.89-2.9 2.8-.27.25-.47.11-.71 0-4.4-2.06-8.67-1.78-12.93.54-3.84 2.1-7.8 2.09-11.64 0-4.75-2.59-9.37-2.54-14.11.08-3.74 2.06-7.64 2.06-11.38-.02-4.76-2.66-9.43-2.74-14.15 0-1.78 1.04-3.72 1.5-5.78 1.44-.27 0-.51-.04-.74-.22-2.27-1.82-4.41-3.77-6.36-5.93-.03-.04-.03-.11-.09-.35zm8.35 7.71c2.45-.18 4.37-1.17 6.33-2.16 3.68-1.85 7.46-1.81 11.07.21 4.69 2.63 9.29 2.67 14 .07 3.86-2.13 7.85-2.12 11.72 0 4.62 2.52 9.18 2.58 13.79.05 3.65-2 7.38-2.07 11.37-.33-.93.72-1.78 1.32-2.57 2-1.05.89-2.17 1.32-3.61 1.29-2.04-.04-3.96.63-5.74 1.63-4.2 2.36-8.36 2.31-12.59.01-4.4-2.38-8.85-2.3-13.23.11-4.1 2.26-8.17 2.22-12.25-.05-4.32-2.4-8.69-2.42-13.05-.1-.45.24-.75.28-1.19 0-1.31-.83-2.63-1.65-4.05-2.71zm61.5 2.63c-4.61 2.79-9.54 4.82-14.74 6.24-1.07.29-1.95.18-2.92-.37-3.24-1.86-6.69-2.22-10.29-1.23-.89.25-1.76.55-2.54 1.04-2.72 1.73-5.59 2.19-8.74 1.35-1.69-.45-3.39-.71-4.92-1.65a7.18 7.18 0 0 0-3.27-1.06c-1.79-.12-3.38-.79-4.95-1.56l-3.09-1.53c.05-.39.36-.41.57-.51 3.67-1.61 7.33-1.58 10.84.39 4.66 2.62 9.24 2.65 13.92.07 3.93-2.16 7.94-2.11 11.88.03 4.59 2.5 9.14 2.5 13.7-.03 1.25-.69 2.57-1.21 4-1.37.2-.01.48-.24.54.17z" fill="#fefefe"/><path d="M54.41 62.43c-1.11.56-2.27.88-3.52.9l-.35-.04-.03-.08.7-.14c0-.04-.01-.07-.02-.11h-.75c-.43-.04-.77-.18-.47-.7.29-.5-.33-.13-.32-.35l-1.32-2.41a.9.9 0 0 0-.89-.56c-1.81-.06-3.48-.65-5.05-1.52-1.35-.75-2.73-1.43-4.27-1.67-.37-.06-.56-.26-.73-.55-1.77-3.03-1.47-7.23.73-10.14 2.28-3.02 6.12-4.35 9.8-3.41 3.53.9 6.34 3.97 6.85 7.49.45 3.12-.45 5.79-2.7 7.99-.41.39-.43.64-.09 1.08.61.8 1.14 1.65 1.71 2.47-.41.13-.39-.36-.65-.45q-.13.41 1.37 2.21z" fill="#000098"/><path d="M53.88 112.76c5.34-3.04 10.18-3.34 13.71-.9-4.52.85-8.98 1.17-13.71.9z" fill="#fdfdfe"/><path d="M85.85 104.87c-.13-.21-.37-.08-.54-.17l.57-.15c.09-.02.26-.07.27.09 0 .16-.16.2-.3.24z" fill="#b1b1df"/><path d="M90.36 55.69c2.84-.17 4.88-2.43 4.87-5.41 0-2.96-2.15-5.35-4.96-5.48-.88-.04-2.01-.29-2.58.14-.55.42-.16 1.61-.16 2.46v7.29c0 .67-.13.97-.87.92-.83-.06-1.66.04-2.47.21-.39.08-.65.1-.65-.47V42.64c0-.81.58-1.09 1.15-1.09 2.66 0 5.36-.42 7.96.28 3.5.95 5.72 3.31 6.44 6.86.7 3.44-.3 6.37-3.04 8.66-.52.43-.95.59-1.63.17A11.99 11.99 0 0 0 90.66 56c-.06-.15-.45.04-.32-.31zm-73.45-6.2v-6.66c0-1.11.2-1.32 1.27-1.32 2.95 0 2.62-.26 2.63 2.6l-.02 10.04c-.01.86.26 1.01 1.03.99l4.98-.03c.84-.02 1.16.34 1.15 1.17 0 2.09.02 2.11-2.09 2.53-3.01.59-5.81-.03-8.45-1.54-.43-.25-.51-.57-.51-1.02V49.5z" fill="#000098"/><path d="M75.85 50.34v-7.28c0-1.86-.01-1.53 1.6-1.55h1.51c.54-.03.76.23.79.72l.03.71.02 14.04c0 .73-.28 1.08-.88 1.32-.69.27-1.41.43-2.13.58-.71.15-.97.02-.95-.79l.02-7.73z" fill="#009"/><path d="M65.29 56.11c2.22-.9 2.81-1.78 2.81-4.1v-9.32c0-1.04.14-1.18 1.17-1.19h2.04c.44-.01.68.17.67.62-.05 4.14.22 8.28-.16 12.42-.11 1.14-.62 2.14-1.33 3.05-.36.46-.68.6-1.25.3-1.26-.65-2.52-1.3-3.95-1.77zm-35.44.82V42.69c0-.74.41-1.14 1.15-1.19h.18c2.28-.02 2.65-.16 2.61 2.51-.06 3.67-.03 7.34 0 11 0 .56-.15.76-.71.84-1.08.15-2.1.55-3.23 1.08zm32.63-1.37c-1.43-.11-2.76.02-4.05.33-.53.13-.68-.05-.84-.46-.36-.92-.55-1.87-.55-2.86l-.01-9.95c0-.79.26-1.16 1.08-1.12h1.95c.71-.05.92.23.91.92l-.03 9.06c-.03 1.57.14 3.02 1.52 4.08z" fill="#000098"/><path d="M90.36 55.69l.32.31c-.24.03-.52.09-.59-.24-.02-.09.16-.1.27-.07z" fill="#c0c0e5"/><path d="M45.63,56.07c-2.88,0-5.32-2.45-5.36-5.41-.04-2.91,2.42-5.48,5.27-5.5,2.93-.02,5.47,2.55,5.47,5.52,0,2.91-2.47,5.38-5.38,5.39Z" fill="#fefefe"/></svg>